<svg xmlns="http://www.w3.org/2000/svg" viewBox="0 0 1000 1000"><path d="M504.2 159.1c18.6-16 29.2-18.7 66.4-18.7a220 220 0 0 1 47.8 5.3c5.3 2.7 5.3 10.7 5.3 24 2.7 42.6-13.3 106.6-39.8 143.9-5.3 5.3-8 8-13.3 10.7-26.6 10.6-50.4-18.7-114.2 101.2-45.2 82.6-58.4 130.6-58.4 157.2 0 37.3 21.2 34.6 23.9 58.6a130 130 0 0 1-13.3 48c-21.2 42.6-61.1 95.9-92.9 95.9-10.6 2.7-23.9-8-34.5-8-13.3 8-10.6 26.6-13.3 37.3-2.7 90.6 127.4 133.2 231 127.9 220.4-10.6 440.7-170.5 443.4-450.3 0-186.5-135.4-421-443.4-434.3C318.3 47.2 60.8 201.7 58.2 492.1 55.5 598.7 90 699.9 177.6 801.2c-34.5 24-74.3-26.6-90.3-55.9-69-106.6-79.6-199.8-77-253.1C15.7 201.7 259.9 1.9 496.2 9.8A492 492 0 0 1 990 492.1c-2.7 333-268.1 500.9-504.4 498.2-127.4 0-257.5-55.9-257.5-165.2 0-26.6 5.3-37.3 26.5-74.6 0-2.7-5.3-10.7-5.3-10.7-13.3-10.7-8-24-10.6-32-2.7-90.6 55.7-258.4 140.7-389 37.2-61.2 92.9-135.8 124.8-159.7z"/><path d="M342.2 801.2c34.5 21.3 55.7 26.6 63.7 26.6 34.5-5.3 90.3-90.6 90.3-119.9 0-26.6-26.5-37.3-50.4-58.6-23.9 85.3-55.8 119.9-103.6 151.9zM602.4 332.2c18.6 8 39.8 10.7 55.7 10.7 15.9-2.7 21.2-5.3 29.2-16 10.6-26.6 29.2-61.3 31.9-93.3 0-10.7 2.7-24-2.7-32a141 141 0 0 0-58.4-42.6c-2.6 74.7-18.5 114.6-55.7 173.2z"/></svg>