<svg xmlns="http://www.w3.org/2000/svg" viewBox="0 0 32 32"><path d="M16 4c-2.3 0-3.8.9-5.1 1.6A9 9 0 0 1 6 7H5v1c0 7.7 2.6 12.7 5.3 15.8 2.6 3 5.3 4.1 5.3 4.1l.4.2.4-.2s2.7-1 5.4-4C24.4 20.7 27 15.6 27 8V7h-1a9 9 0 0 1-4.9-1.4C19.8 5 18.2 4 16 4zm0 2c1.8 0 2.8.6 4.2 1.4 1.1.6 2.7 1.2 4.7 1.4a21 21 0 0 1-4.6 13.7c-2.1 2.3-3.8 3.1-4.3 3.3-.5-.2-2.2-1-4.3-3.3A21 21 0 0 1 7.2 8.8c2-.2 3.6-.8 4.7-1.4C13.2 6.6 14.2 6 16 6zm5.3 5.3L15 17.6l-3.3-3.3-1.4 1.4 4 4 .7.7.7-.7 7-7-1.4-1.4z" font-family="Sans" overflow="visible" style="text-indent:0;text-align:start;line-height:normal;text-transform:none;block-progression:tb;-inkscape-font-specification:Sans"/></svg>