<svg xmlns="http://www.w3.org/2000/svg" viewBox="0 0 50 50"><path d="M33 1.3l-.8 1.1s-.6.8-1 1.7l-.8 1.4c-.2.5-.4 1-.4 1.5a3 3 0 0 0 3 3 3 3 0 0 0 3-3c0-.6-.2-1-.4-1.5l-.7-1.4-1-1.7-.9-1.1zm8.5 2.5l-.8 1.1-1.3 2a18 18 0 0 0-1 1.8c-.2.6-.4 1.2-.4 1.8 0 2 1.6 3.5 3.5 3.5 2 0 3.5-1.6 3.5-3.5 0-.6-.2-1.2-.5-1.8a18 18 0 0 0-.9-1.7l-1.3-2-.8-1.3zm-8.5 1l.1.3.7 1.2.2.7c0 .6-.4 1-1 1a1 1 0 0 1-1-1l.2-.7.7-1.2.1-.2zm8.5 2.6l.4.6.8 1.5.3 1c0 .8-.7 1.5-1.5 1.5s-1.5-.7-1.5-1.5l.3-1 .8-1.5.4-.6zM17.7 8a1 1 0 0 0-.6.3l-4 4.4L8 18c-.7 1-1.5 2.8-2.4 4.6L4 26.1a1 1 0 1 0 1.8.9l1.6-3.4c.8-1.8 2-3.8 2.3-4.2l4.7-5.4c1.6-1.7 2.5-2.6 3-3.3.8 1.5.7 3.3-.3 4.6l-.6.9-.3-.3a1 1 0 0 0-.8-.3 1 1 0 0 0-.8.5L12 21.3l-3.5 6.5c-.4 1.1-.8 3.1-1.2 5l-.8 3.8a1 1 0 1 0 2 .3l.7-3.6c.4-2 1-4.2 1.2-4.7a180 180 0 0 1 5.5-10.3c1 1.3 1.4 3 .8 4.6l-2 4.7a1 1 0 0 0 1.4 1.2l18.2-9.5c.4-.2.7-.2 1 0 .4.1.7.4.8.7.2.3.2.7.1 1 0 .4-.2.6-.7.9l-10 5a1 1 0 0 0 1 1.8l9.9-5 2.9-1.5c.2-.1.6-.2 1 0 .3 0 .6.2.9.6.2.5.2.8 0 1.2-.1.3-.4.6-.7.8l-1.4.7-4.8 2.3-4.1 2.1-1.3.7-.4.2h-.1l.9 1.8h.1l.4-.2 1.3-.6 4.2-2.2 4.7-2.4c.4-.1.7-.2 1-.1.3 0 .6.2 1 .8.2.5.2.7 0 1-.1.3-.6.8-1.4 1.2L36.9 32 30 35.3a1 1 0 0 0 .9 1.8l6.8-3.4c.4-.2 1-.5 1.5-.5s.7 0 1 .8c.4.7.3 1 0 1.3-.2.3-.8.7-1.3 1 0 0-13.6 7-16.9 8.5-4.1 2-9.7 1-9.7 1a1 1 0 1 0-.4 1.9s6 1.2 11-1L40 38c.5-.3 1.3-.7 2-1.5.6-.8.8-2.2.2-3.4-.3-.5-.6-.8-1-1.1h.1c1.2-.6 2-1.3 2.4-2.2.5-.9.3-2-.1-2.8-.3-.7-.8-1.1-1.4-1.5.3-.3.7-.4.8-.8.3-.8.3-1.8-.2-2.8-.4-.9-1.3-1.5-2.1-1.7-.9-.2-1.7-.1-2.5.2l-.2.2v-.7c.8-.9 1-2 .8-3-.2-.9-.7-1.6-1.4-2.1s-1.6-.8-2.6-.6l-16.6 4-.3-.5.9-1a1 1 0 0 0 0-.1c1.6-2.1 1.7-5 .4-7.2l-.5-.9a1 1 0 0 0-1-.5zm17.8 8.2c.3 0 .5 0 .8.2.2.2.4.5.5.9v.6l-.8-.5c-.8-.3-1.8-.3-2.7.2l-15.8 8.2 1-2.1c.4-1.2.5-2.4.3-3.6l16.4-4h.3z" font-family="Bitstream Vera Sans" overflow="visible" style="text-indent:0;text-align:start;line-height:normal;text-transform:none;block-progression:tb;-inkscape-font-specification:Bitstream Vera Sans"/></svg>